<svg xmlns="http://www.w3.org/2000/svg" viewBox="0 0 120 120">
  <defs>
    <linearGradient id="logoGradient" x1="0%" y1="0%" x2="100%" y2="100%">
      <stop offset="0%" style="stop-color:#00d4ff"/>
      <stop offset="50%" style="stop-color:#a855f7"/>
      <stop offset="100%" style="stop-color:#ec4899"/>
    </linearGradient>
    <linearGradient id="logoBg" x1="0%" y1="0%" x2="100%" y2="100%">
      <stop offset="0%" style="stop-color:#0d1219"/>
      <stop offset="100%" style="stop-color:#0a0e17"/>
    </linearGradient>
    <filter id="logoGlow">
      <feGaussianBlur stdDeviation="2" result="coloredBlur"/>
      <feMerge>
        <feMergeNode in="coloredBlur"/>
        <feMergeNode in="SourceGraphic"/>
      </feMerge>
    </filter>
  </defs>
  
  <!-- Background -->
  <rect width="120" height="120" rx="20" fill="url(#logoBg)"/>
  <rect width="120" height="120" rx="20" fill="none" stroke="#1e293b" stroke-width="1"/>
  
  <!-- Abstract interpretation symbol -->
  <g transform="translate(60, 60)">
    <!-- Outer ring -->
    <circle cx="0" cy="0" r="40" stroke="url(#logoGradient)" stroke-width="3" fill="none" filter="url(#logoGlow)"/>
    
    <!-- Inner geometric pattern -->
    <circle cx="0" cy="0" r="28" stroke="#00d4ff" stroke-width="1.5" fill="none" opacity="0.7"/>
    <circle cx="0" cy="0" r="16" stroke="#a855f7" stroke-width="1.5" fill="none" opacity="0.7"/>
    
    <!-- Central dot -->
    <circle cx="0" cy="0" r="6" fill="url(#logoGradient)" filter="url(#logoGlow)"/>
    
    <!-- Connection lines (abstract representation of signal/interpretation) -->
    <g stroke="#00d4ff" stroke-width="2" opacity="0.8">
      <line x1="0" y1="-28" x2="0" y2="-16" filter="url(#logoGlow)"/>
      <line x1="0" y1="16" x2="0" y2="28" filter="url(#logoGlow)"/>
      <line x1="-28" y1="0" x2="-16" y2="0" filter="url(#logoGlow)"/>
      <line x1="16" y1="0" x2="28" y2="0" filter="url(#logoGlow)"/>
    </g>
    
    <!-- Diagonal accents -->
    <g stroke="#a855f7" stroke-width="1.5" opacity="0.6">
      <line x1="-20" y1="-20" x2="-11" y2="-11"/>
      <line x1="20" y1="-20" x2="11" y2="-11"/>
      <line x1="-20" y1="20" x2="-11" y2="11"/>
      <line x1="20" y1="20" x2="11" y2="11"/>
    </g>
    
    <!-- Corner nodes -->
    <g fill="#ec4899">
      <circle cx="0" cy="-28" r="3"/>
      <circle cx="0" cy="28" r="3"/>
      <circle cx="-28" cy="0" r="3"/>
      <circle cx="28" cy="0" r="3"/>
    </g>
  </g>
  
  <!-- Corner brackets -->
  <g stroke="#00d4ff" stroke-width="2" fill="none" opacity="0.5">
    <path d="M 8 20 L 8 8 L 20 8"/>
    <path d="M 100 8 L 112 8 L 112 20"/>
    <path d="M 8 100 L 8 112 L 20 112"/>
    <path d="M 100 112 L 112 112 L 112 100"/>
  </g>
</svg>